<svg width="265" height="84" viewBox="0 0 265 84" fill="none" xmlns="http://www.w3.org/2000/svg">
<g clip-path="url(#clip0_655_54)">
<path d="M27.7443 1.47661C19.1291 1.47661 14.5341 2.05672 12.5231 2.05672C9.17249 2.05672 6.205 1.95963 3.23626 1.95963C1.60946 1.95963 1.32227 2.05687 1.32227 2.73268C1.32227 3.89074 1.70471 3.9888 6.0139 3.9888C8.69315 3.9888 10.2266 4.85807 10.2266 12.4876V56.9149C10.2266 58.3634 10.0339 58.5568 5.72641 58.5568C3.61996 58.5568 3.045 58.7488 3.045 59.7158C3.045 60.6813 3.7153 60.7777 4.67381 60.7777C7.73648 60.7777 9.84291 60.3918 13.8633 60.3918C18.0755 60.3918 22.0968 61.3566 26.118 61.3566C39.4258 61.3566 48.3297 56.2392 48.3297 45.4218C48.3297 37.0194 42.6795 33.7349 38.1802 31.4157C36.2655 30.4503 34.4462 29.9675 34.4462 29.775C34.4462 29.4861 36.5526 28.4229 38.3727 27.167C41.4369 25.0427 45.5532 21.6608 45.5532 14.8041C45.5532 7.94662 40.192 1.47661 27.7443 1.47661ZM191.78 1.58707C191.28 1.58707 188.115 3.01522 181.621 3.43533C180.205 3.51922 179.538 3.43441 179.538 4.44257C179.538 5.36762 180.372 5.53604 181.871 5.53604C185.617 5.53604 186.117 5.53563 186.117 10.8272V57.114C186.117 58.6262 184.701 58.5424 181.287 58.5424C179.288 58.5424 179.205 59.0478 179.205 59.6358C179.205 60.3076 179.371 60.4756 181.287 60.4756C182.453 60.4756 186.867 60.3081 189.697 60.3081C191.198 60.3081 193.029 60.4756 194.278 60.4756C197.275 60.4756 197.858 60.4754 197.858 59.6358C197.858 58.9624 198.024 58.4586 193.861 58.4586C192.362 58.4586 191.779 57.5346 191.779 50.563C191.779 48.1257 192.196 41.4904 192.196 9.48331C192.196 6.96369 192.612 3.93795 192.612 2.9298C192.612 2.00552 192.195 1.58707 191.78 1.58707ZM122.647 1.67079C121.897 1.67079 116.983 3.51796 110.989 3.51796C110.073 3.51796 109.906 3.8543 109.906 4.69392C109.906 5.28343 110.239 5.53618 113.652 5.53618C115.9 5.53618 116.567 6.29236 116.567 12.2559C116.567 29.9818 116.317 54.8471 116.317 57.2828C116.317 58.5426 115.568 58.5425 112.737 58.5425C110.738 58.5425 110.323 58.9625 110.323 59.6359C110.323 60.3917 110.822 60.4757 112.737 60.4757C113.903 60.4757 116.984 60.3082 119.816 60.3082C122.481 60.3082 126.31 60.4757 127.559 60.4757C129.39 60.4757 129.807 60.4755 129.807 59.6359C129.807 58.9625 129.474 58.5425 127.559 58.5425C122.397 58.5425 122.564 58.5431 122.564 54.5959V49.3035C122.564 48.547 123.729 47.9582 125.061 47.1178C126.476 46.1936 127.642 45.3544 127.975 45.3544C128.475 45.3544 131.974 50.6478 135.471 54.6797C138.968 58.7115 139.718 60.8118 141.217 60.8118C142.383 60.8118 144.881 60.7281 145.88 60.7281C146.629 60.7281 147.711 60.8118 148.711 60.8118C150.542 60.8118 151.125 60.6438 151.125 60.0558C151.125 59.384 150.46 58.9623 148.462 58.9623C145.631 58.9623 142.966 54.8468 140.133 51.4029C134.305 44.3458 132.807 42.7504 132.807 41.9939C132.807 41.4059 137.97 37.7107 142.134 33.5934C144.715 31.0738 147.545 27.4623 147.545 26.705C147.545 26.4526 147.212 26.3689 146.546 26.3689C145.548 26.3689 140.717 26.6201 139.634 26.6201C138.635 26.6201 137.054 26.3689 136.221 26.3689C135.139 26.3689 134.722 26.5365 134.722 27.2099C134.722 27.9664 135.139 28.1334 136.387 28.1334C140.05 28.1334 140.301 28.3019 140.301 29.6456C140.301 31.4095 139.551 32.8378 136.304 35.9454C133.64 38.4666 124.978 46.1943 122.896 46.1943C122.647 46.1943 122.564 45.942 122.564 45.6057C122.564 31.9132 123.062 22.505 123.062 9.73607C123.062 7.04791 123.229 3.5178 123.229 2.42653C123.229 1.92245 123.063 1.67079 122.647 1.67079ZM24.8711 3.79463C33.5833 3.79463 37.6045 13.067 37.6045 17.8966C37.6045 25.5261 34.4453 27.3613 31.669 29.4863C31.669 29.4863 27.6472 28.9062 21.8082 28.9062C19.5093 28.9062 18.2655 29.0987 18.2655 27.5531V6.59613C18.2655 4.66448 18.5533 3.79463 24.8711 3.79463ZM66.8554 25.5283C59.278 25.5283 51.3665 32.5854 51.3665 44.4301C51.3665 58.4588 61.5261 61.8204 68.3536 61.8204C75.0987 61.8204 82.1768 56.5263 82.1768 56.1068C82.1768 55.9383 81.9269 55.4345 81.5104 55.4345C81.0115 55.4345 78.0138 57.4514 72.5183 57.4514C66.1889 57.4514 57.2779 54.3429 57.2779 42.7498C57.2779 40.8182 57.5288 40.398 58.8622 40.3141C68.3536 39.7262 76.6808 37.8792 78.8458 37.3735C81.0954 36.8694 82.2611 36.5339 82.2611 36.1976C82.2611 35.5257 80.9277 33.5091 79.5111 31.8299C76.5139 28.3013 71.1861 25.5283 66.8554 25.5283ZM163.951 25.5283C156.374 25.5283 148.462 32.5854 148.462 44.4301C148.462 58.4588 158.621 61.8204 165.449 61.8204C172.193 61.8204 179.272 56.5263 179.272 56.1068C179.272 55.9383 179.021 55.4345 178.606 55.4345C178.106 55.4345 175.108 57.4514 169.612 57.4514C163.284 57.4514 154.374 54.3429 154.374 42.7498C154.374 40.8182 154.624 40.398 155.956 40.3141C165.449 39.7262 173.775 37.8792 175.941 37.3735C178.189 36.8694 179.355 36.5339 179.355 36.1976C179.355 35.5257 178.024 33.5091 176.608 31.8299C173.609 28.3013 168.281 25.5283 163.951 25.5283ZM211.98 25.5283C204.402 25.5283 196.491 32.5854 196.491 44.4301C196.491 58.4588 206.65 61.8204 213.478 61.8204C220.224 61.8204 227.302 56.5263 227.302 56.1068C227.302 55.9383 227.051 55.4345 226.635 55.4345C226.136 55.4345 223.139 57.4514 217.642 57.4514C211.314 57.4514 202.404 54.3429 202.404 42.7498C202.404 40.8182 202.654 40.398 203.986 40.3141C213.479 39.7262 221.806 37.8792 223.971 37.3735C226.219 36.8694 227.385 36.5339 227.385 36.1976C227.385 35.5257 226.053 33.5091 224.637 31.8299C221.64 28.3013 216.309 25.5283 211.98 25.5283ZM95.8329 26.1157C94.4994 26.1157 92.9171 26.5356 91.5852 26.5356C89.9199 26.5356 88.3375 26.3669 85.5065 26.3669C84.0899 26.3669 84.1736 26.6201 84.1736 27.629C84.1736 28.5533 84.1732 28.4688 85.6737 28.4688C90.3363 28.4688 90.1692 28.6368 90.1692 34.3487V57.367C90.1692 58.543 89.9199 58.6268 86.5061 58.6268C84.5067 58.6268 84.4237 58.7941 84.4237 59.6353C84.4237 60.4757 84.5898 60.4751 86.5061 60.4751C87.6718 60.4751 90.5033 60.0551 93.3343 60.0551C95.9997 60.0551 101.578 60.4751 102.744 60.4751C104.909 60.4751 104.992 60.5596 104.992 59.6353C104.992 58.878 104.909 58.6268 102.744 58.6268C96.5823 58.6268 96.3332 58.626 96.3332 54.5102V37.2038C96.3332 33.676 98.164 31.66 102.993 31.66C107.157 31.66 108.157 35.1042 109.323 35.1042C109.822 35.1042 111.154 31.4082 111.154 30.5678C111.154 28.3845 107.324 26.535 105.823 26.535C101.91 26.535 97.9982 30.904 96.7494 30.904C96.416 30.904 96.3331 30.3163 96.3331 29.5605C96.3331 29.3081 96.4991 27.46 96.4991 27.0398C96.4991 26.3664 96.1663 26.1157 95.8329 26.1157ZM262.101 26.1994C260.935 26.1994 258.687 26.5356 257.438 26.5356C255.188 26.5356 253.69 26.3681 251.442 26.3681C249.943 26.3681 249.693 26.3675 249.693 27.4603C249.693 28.3007 250.027 28.3013 252.608 28.3013C255.438 28.3013 255.438 28.8048 255.438 31.3244C255.438 32.5003 252.441 41.2382 250.443 47.2856C249.111 51.2351 248.611 52.4106 248.028 52.4106C247.695 52.4106 246.695 50.9827 246.028 49.2188C241.033 36.2805 238.868 33.3399 238.868 30.9042C238.868 28.9726 239.367 28.4685 241.365 28.4685C243.114 28.4685 243.447 28.3844 243.447 27.6287C243.447 26.7029 243.114 26.3677 241.365 26.3677C238.701 26.3677 235.786 26.619 233.454 26.619C231.457 26.619 230.874 26.4515 228.543 26.4515C227.044 26.4515 226.795 26.8722 226.795 27.6287C226.795 28.3844 226.877 28.4685 228.543 28.4685C230.041 28.4685 230.624 28.8892 232.706 33.9284C237.286 44.8496 243.947 60.3906 243.947 61.3149C243.947 63.8345 236.788 73.7466 233.789 77.5262C230.958 81.1394 227.044 81.6434 227.044 82.1475C227.044 82.5677 227.876 82.9873 229.292 82.9873C231.124 82.9873 231.706 82.3156 234.204 81.9801C236.037 81.7276 237.036 81.6433 237.952 79.7956C240.616 74.2508 244.364 67.4458 249.61 54.5933C256.188 38.4658 259.853 28.3843 261.685 28.3843C262.684 28.3843 263.849 27.964 263.849 27.2083C263.849 26.2832 263.433 26.1994 262.101 26.1994ZM66.0223 27.2928C69.8533 27.2928 74.7655 33.5082 74.7655 35.6084C74.7655 36.1124 74.6832 36.2804 73.767 36.4482C67.5216 37.4563 63.0249 38.5501 58.6949 38.5501C57.6948 38.5501 57.6953 38.4654 57.6953 38.0452C57.6953 36.8677 59.6945 27.2928 66.0223 27.2928ZM163.116 27.2928C166.948 27.2928 171.86 33.5082 171.86 35.6084C171.86 36.1124 171.777 36.2804 170.861 36.4482C164.615 37.4563 160.119 38.5501 155.79 38.5501C154.791 38.5501 154.79 38.4654 154.79 38.0452C154.79 36.8677 156.788 27.2928 163.116 27.2928ZM211.146 27.2928C214.976 27.2928 219.89 33.5082 219.89 35.6084C219.89 36.1124 219.807 36.2804 218.89 36.4482C212.645 37.4563 208.149 38.5501 203.818 38.5501C202.819 38.5501 202.819 38.4654 202.819 38.0452C202.819 36.8677 204.816 27.2928 211.146 27.2928ZM21.7191 30.7395C32.1536 30.7395 39.2375 37.5005 39.2375 46.1934C39.2375 54.5957 33.8771 59.6194 26.6015 59.6194C23.5373 59.6194 20.475 58.9429 19.421 57.7833C18.5602 56.8171 18.2721 51.4092 18.2721 50.5393V33.25C18.2721 31.1257 19.0382 30.7395 21.7191 30.7395ZM69.1927 70.1664C67.2256 70.1664 65.585 71.3636 65.585 73.3473C65.585 77.1174 70.5088 76.4453 70.5088 78.5439C70.5088 79.3797 69.8747 80.1009 68.5913 80.1009C67.7298 80.1009 66.6415 79.6923 65.7307 79.0693L64.9187 80.5123C65.8287 81.1508 67.0631 81.7587 68.5914 81.7587C70.7202 81.7587 72.4914 80.3797 72.4914 78.4783C72.4914 74.6577 67.5676 75.8068 67.5676 73.2648C67.5676 72.4291 68.1203 71.823 69.1928 71.823C70.1514 71.823 70.8984 72.1511 71.7275 72.5767L72.4264 71.1665C71.4848 70.577 70.3622 70.1664 69.1927 70.1664ZM108.447 70.1664C105.099 70.1664 103.605 72.577 103.605 75.9541C103.605 79.1673 105.083 81.7587 108.447 81.7587C111.811 81.7587 113.29 79.1673 113.29 75.9541C113.29 72.577 111.794 70.1664 108.447 70.1664ZM134.542 70.1664C131.194 70.1664 129.552 72.5931 129.552 75.971C129.552 79.4134 131.049 81.7587 134.477 81.7587C135.972 81.7587 137.37 81.1345 138.507 80.0852L137.516 78.8073C136.606 79.6438 135.566 80.101 134.574 80.101C132.51 80.101 131.534 78.6104 131.534 75.9541C131.534 73.3149 132.576 71.823 134.542 71.823C135.598 71.823 136.378 72.2006 137.239 72.9213L138.247 71.6095C137.077 70.6417 135.923 70.1664 134.542 70.1664ZM176.851 70.1664C173.503 70.1664 172.009 72.577 172.009 75.9541C172.009 79.1673 173.488 81.7587 176.851 81.7587C180.215 81.7587 181.694 79.1673 181.694 75.9541C181.694 72.577 180.199 70.1664 176.851 70.1664ZM21.3465 70.3303L19.477 70.528V81.5779H21.4113V74.0366H21.4438L26.1402 81.5779H27.8629V70.3472H25.9286V77.7259H25.8806L21.3465 70.3303ZM46.1558 70.3303V81.5778H52.9165L53.0632 79.9213H48.0901V76.7416H52.2668V75.085H48.0901V71.9868H52.7865V70.3303H46.1558ZM115.778 70.3303V81.5778H117.711V76.7416H121.807V75.085H117.711V71.9868H122.278V70.3303H115.778ZM145.675 70.3303L143.417 70.5111L139.5 81.5778H141.304L142.229 78.8715H146.715L147.642 81.5778H149.625L145.675 70.3303ZM164.262 70.3303V81.5778H166.195V76.7416H170.291V75.085H166.195V71.9868H170.763V70.3303H164.262ZM194.711 70.3303L192.842 70.528V81.5779H194.775V74.0366H194.809L199.504 81.5779H201.227V70.3472H199.293V77.7259H199.244L194.711 70.3303ZM213.346 70.3303L211.087 70.5111L207.17 81.5778H208.974L209.901 78.8715H214.385L215.312 81.5778H217.295L213.346 70.3303ZM8.55226 70.3472V77.6749C8.55226 80.1999 9.93315 81.7586 12.664 81.7586C15.3771 81.7586 16.759 80.2004 16.759 77.6591V70.3472H14.8246V77.7902C14.8246 79.1844 14.2409 80.1008 12.6642 80.1008C11.0712 80.1008 10.4857 79.1836 10.4857 77.7732V70.3472H8.55226ZM30.6176 70.3472V81.5778H32.5509V70.3472H30.6176ZM34.4514 70.3472L38.2865 81.5778H40.4145L44.2664 70.3472H42.3645L40.2365 76.6264C40.2365 76.6264 40.0253 77.2649 39.4726 79.1834H39.3751C38.8385 77.2649 38.628 76.6094 38.628 76.6094L36.4988 70.3472H34.4514ZM55.6222 70.3472V81.5778H57.5554V77.0851H58.4817C59.1808 77.0851 59.5871 77.7421 59.912 78.4139L61.4553 81.5778H63.5846L61.4553 77.5281C61.326 77.2655 61.1305 76.9698 60.7733 76.7562V76.7247C62.2354 76.167 62.8701 75.0198 62.8701 73.6761C62.8701 71.7251 61.6506 70.3472 59.1962 70.3472H55.6222ZM74.7943 70.3472V81.5778H76.7275V70.3472H74.7943ZM78.953 70.3472V72.0196H81.8954V81.5778H83.8286V72.0025H86.64L86.7867 70.3472H78.953ZM88.0523 70.3472L91.5626 76.7731V81.5778H93.4958V76.7731L97.0073 70.3472H94.8768L93.301 73.545C93.301 73.545 93.106 73.9538 92.554 75.2003H92.5059C91.92 73.9537 91.7084 73.545 91.7084 73.545L90.2299 70.3472H88.0523ZM151.192 70.3472V81.5778H157.773L157.92 79.9213H153.126V70.3472H151.192ZM159.803 70.3472V81.5778H161.736V70.3472H159.803ZM183.362 70.3472V81.5778H185.296V77.0851H186.222C186.921 77.0851 187.328 77.7421 187.653 78.4139L189.196 81.5778H191.325L189.196 77.5281C189.067 77.2655 188.871 76.9698 188.514 76.7562V76.7247C189.976 76.167 190.611 75.0198 190.611 73.6761C190.611 71.7251 189.391 70.3472 186.937 70.3472H183.362ZM203.656 70.3472V81.5778H205.59V70.3472H203.656ZM108.444 71.8229C110.362 71.8229 111.288 73.5113 111.288 75.954C111.288 78.3968 110.347 80.1008 108.444 80.1008C106.527 80.1008 105.585 78.396 105.585 75.9369C105.585 73.4942 106.527 71.8229 108.444 71.8229ZM176.847 71.8229C178.765 71.8229 179.691 73.5113 179.691 75.954C179.691 78.3968 178.749 80.1008 176.847 80.1008C174.929 80.1008 173.987 78.396 173.987 75.9369C173.987 73.4942 174.929 71.8229 176.847 71.8229ZM57.5552 72.0195H59.148C60.4646 72.0195 60.8875 72.6425 60.8875 73.6919C60.8875 74.7576 60.3508 75.4456 59.1805 75.4456H57.5552V72.0195ZM185.296 72.0195H186.888C188.205 72.0195 188.628 72.6425 188.628 73.6919C188.628 74.7576 188.091 75.4456 186.921 75.4456H185.296V72.0195ZM144.432 72.3144H144.465C145.229 74.6422 145.359 75.0026 145.359 75.0026L146.22 77.4784H142.693L143.554 75.0026C143.554 75.0026 143.685 74.6423 144.432 72.3144ZM212.104 72.3144H212.136C212.9 74.6422 213.031 75.0026 213.031 75.0026L213.891 77.4784H210.364L211.227 75.0026C211.227 75.0026 211.356 74.6423 212.104 72.3144Z" fill="#191919"/>
</g>
<defs>
<clipPath id="clip0_655_54">
<rect width="265" height="84" fill="white"/>
</clipPath>
</defs>
</svg>
