<svg width="266" height="84" viewBox="0 0 266 84" fill="none" xmlns="http://www.w3.org/2000/svg">
<g clip-path="url(#clip0_579_6)">
<path d="M27.848 1.47661C19.2002 1.47661 14.5878 2.05672 12.5693 2.05672C9.20602 2.05672 6.22733 1.95963 3.24739 1.95963C1.61445 1.95963 1.32617 2.05687 1.32617 2.73268C1.32617 3.89074 1.71006 3.9888 6.03551 3.9888C8.72488 3.9888 10.2642 4.85807 10.2642 12.4876V56.9149C10.2642 58.3634 10.0707 58.5568 5.74693 58.5568C3.63253 58.5568 3.05541 58.7488 3.05541 59.7158C3.05541 60.6813 3.72823 60.7777 4.69036 60.7777C7.76459 60.7777 9.87896 60.3918 13.9146 60.3918C18.1426 60.3918 22.1791 61.3566 26.2155 61.3566C39.5735 61.3566 48.511 56.2392 48.511 45.4218C48.511 37.0194 42.8395 33.7349 38.3232 31.4157C36.4012 30.4503 34.5751 29.9675 34.5751 29.775C34.5751 29.4861 36.6895 28.4229 38.5164 27.167C41.5922 25.0427 45.7241 21.6608 45.7241 14.8041C45.7241 7.94662 40.3425 1.47661 27.848 1.47661ZM192.502 1.58707C192.001 1.58707 188.824 3.01522 182.305 3.43533C180.884 3.51922 180.215 3.43441 180.215 4.44257C180.215 5.36762 181.051 5.53604 182.556 5.53604C186.316 5.53604 186.818 5.53563 186.818 10.8272V57.114C186.818 58.6262 185.397 58.5424 181.97 58.5424C179.963 58.5424 179.88 59.0478 179.88 59.6358C179.88 60.3076 180.047 60.4756 181.97 60.4756C183.14 60.4756 187.571 60.3081 190.412 60.3081C191.918 60.3081 193.757 60.4756 195.01 60.4756C198.019 60.4756 198.604 60.4754 198.604 59.6358C198.604 58.9624 198.77 58.4586 194.591 58.4586C193.087 58.4586 192.502 57.5346 192.502 50.563C192.502 48.1257 192.92 41.4904 192.92 9.48331C192.92 6.96369 193.338 3.93795 193.338 2.9298C193.338 2.00552 192.919 1.58707 192.502 1.58707ZM123.109 1.67079C122.356 1.67079 117.424 3.51796 111.407 3.51796C110.487 3.51796 110.32 3.8543 110.32 4.69392C110.32 5.28343 110.654 5.53618 114.08 5.53618C116.337 5.53618 117.006 6.29236 117.006 12.2559C117.006 29.9818 116.755 54.8471 116.755 57.2828C116.755 58.5426 116.003 58.5425 113.161 58.5425C111.155 58.5425 110.738 58.9625 110.738 59.6359C110.738 60.3917 111.239 60.4757 113.161 60.4757C114.331 60.4757 117.424 60.3082 120.268 60.3082C122.942 60.3082 126.786 60.4757 128.039 60.4757C129.878 60.4757 130.296 60.4755 130.296 59.6359C130.296 58.9625 129.962 58.5425 128.039 58.5425C122.857 58.5425 123.025 58.5431 123.025 54.5959V49.3035C123.025 48.547 124.195 47.9582 125.532 47.1178C126.953 46.1936 128.122 45.3544 128.457 45.3544C128.958 45.3544 132.471 50.6478 135.981 54.6797C139.491 58.7115 140.244 60.8118 141.749 60.8118C142.919 60.8118 145.426 60.7281 146.429 60.7281C147.181 60.7281 148.268 60.8118 149.271 60.8118C151.109 60.8118 151.694 60.6438 151.694 60.0558C151.694 59.384 151.026 58.9623 149.021 58.9623C146.179 58.9623 143.504 54.8468 140.661 51.4029C134.811 44.3458 133.307 42.7504 133.307 41.9939C133.307 41.4059 138.489 37.7107 142.669 33.5934C145.26 31.0738 148.101 27.4623 148.101 26.705C148.101 26.4526 147.767 26.3689 147.098 26.3689C146.096 26.3689 141.247 26.6201 140.16 26.6201C139.157 26.6201 137.57 26.3689 136.734 26.3689C135.648 26.3689 135.23 26.5365 135.23 27.2099C135.23 27.9664 135.647 28.1334 136.901 28.1334C140.578 28.1334 140.829 28.3019 140.829 29.6456C140.829 31.4095 140.076 32.8378 136.818 35.9454C134.143 38.4666 125.448 46.1943 123.359 46.1943C123.108 46.1943 123.025 45.942 123.025 45.6057C123.025 31.9132 123.525 22.505 123.525 9.73607C123.525 7.04791 123.693 3.5178 123.693 2.42653C123.693 1.92245 123.526 1.67079 123.109 1.67079ZM24.9638 3.79463C33.7089 3.79463 37.7453 13.067 37.7453 17.8966C37.7453 25.5261 34.5741 27.3613 31.7874 29.4863C31.7874 29.4863 27.7504 28.9062 21.8895 28.9062C19.5819 28.9062 18.3333 29.0987 18.3333 27.5531V6.59613C18.3333 4.66448 18.6223 3.79463 24.9638 3.79463ZM67.1066 25.5283C59.5006 25.5283 51.5592 32.5854 51.5592 44.4301C51.5592 58.4588 61.7572 61.8204 68.6104 61.8204C75.381 61.8204 82.4859 56.5263 82.4859 56.1068C82.4859 55.9383 82.235 55.4345 81.8169 55.4345C81.3161 55.4345 78.3071 57.4514 72.7908 57.4514C66.4376 57.4514 57.493 54.3429 57.493 42.7498C57.493 40.8182 57.7448 40.398 59.0833 40.3141C68.6104 39.7262 76.9691 37.8792 79.1422 37.3735C81.4004 36.8694 82.5704 36.5339 82.5704 36.1976C82.5704 35.5257 81.232 33.5091 79.8101 31.8299C76.8016 28.3013 71.4536 25.5283 67.1066 25.5283ZM164.568 25.5283C156.963 25.5283 149.021 32.5854 149.021 44.4301C149.021 58.4588 159.218 61.8204 166.072 61.8204C172.842 61.8204 179.948 56.5263 179.948 56.1068C179.948 55.9383 179.696 55.4345 179.279 55.4345C178.777 55.4345 175.768 57.4514 170.251 57.4514C163.899 57.4514 154.956 54.3429 154.956 42.7498C154.956 40.8182 155.207 40.398 156.544 40.3141C166.072 39.7262 174.429 37.8792 176.604 37.3735C178.861 36.8694 180.031 36.5339 180.031 36.1976C180.031 35.5257 178.694 33.5091 177.273 31.8299C174.263 28.3013 168.915 25.5283 164.568 25.5283ZM212.779 25.5283C205.172 25.5283 197.232 32.5854 197.232 44.4301C197.232 58.4588 207.429 61.8204 214.283 61.8204C221.053 61.8204 228.158 56.5263 228.158 56.1068C228.158 55.9383 227.907 55.4345 227.49 55.4345C226.988 55.4345 223.98 57.4514 218.462 57.4514C212.111 57.4514 203.167 54.3429 203.167 42.7498C203.167 40.8182 203.418 40.398 204.755 40.3141C214.283 39.7262 222.642 37.8792 224.815 37.3735C227.072 36.8694 228.242 36.5339 228.242 36.1976C228.242 35.5257 226.905 33.5091 225.484 31.8299C222.476 28.3013 217.125 25.5283 212.779 25.5283ZM96.1935 26.1157C94.855 26.1157 93.2667 26.5356 91.9297 26.5356C90.2581 26.5356 88.6697 26.3669 85.8281 26.3669C84.4061 26.3669 84.4902 26.6201 84.4902 27.629C84.4902 28.5533 84.4897 28.4688 85.9959 28.4688C90.6761 28.4688 90.5083 28.6368 90.5083 34.3487V57.367C90.5083 58.543 90.2581 58.6268 86.8315 58.6268C84.8245 58.6268 84.7412 58.7941 84.7412 59.6353C84.7412 60.4757 84.9079 60.4751 86.8315 60.4751C88.0015 60.4751 90.8438 60.0551 93.6854 60.0551C96.3608 60.0551 101.96 60.4751 103.13 60.4751C105.304 60.4751 105.387 60.5596 105.387 59.6353C105.387 58.878 105.304 58.6268 103.13 58.6268C96.9457 58.6268 96.6956 58.626 96.6956 54.5102V37.2038C96.6956 33.676 98.5333 31.66 103.38 31.66C107.56 31.66 108.564 35.1042 109.734 35.1042C110.236 35.1042 111.572 31.4082 111.572 30.5678C111.572 28.3845 107.728 26.535 106.222 26.535C102.294 26.535 98.3669 30.904 97.1134 30.904C96.7788 30.904 96.6956 30.3163 96.6956 29.5605C96.6956 29.3081 96.8622 27.46 96.8622 27.0398C96.8622 26.3664 96.5281 26.1157 96.1935 26.1157ZM263.089 26.1994C261.919 26.1994 259.662 26.5356 258.408 26.5356C256.15 26.5356 254.646 26.3681 252.39 26.3681C250.885 26.3681 250.634 26.3675 250.634 27.4603C250.634 28.3007 250.969 28.3013 253.56 28.3013C256.401 28.3013 256.4 28.8048 256.4 31.3244C256.4 32.5003 253.392 41.2382 251.387 47.2856C250.05 51.2351 249.548 52.4106 248.963 52.4106C248.629 52.4106 247.625 50.9827 246.955 49.2188C241.941 36.2805 239.768 33.3399 239.768 30.9042C239.768 28.9726 240.269 28.4685 242.275 28.4685C244.03 28.4685 244.365 28.3844 244.365 27.6287C244.365 26.7029 244.03 26.3677 242.275 26.3677C239.601 26.3677 236.674 26.619 234.334 26.619C232.329 26.619 231.744 26.4515 229.404 26.4515C227.899 26.4515 227.65 26.8722 227.65 27.6287C227.65 28.3844 227.733 28.4685 229.404 28.4685C230.908 28.4685 231.494 28.8892 233.583 33.9284C238.181 44.8496 244.866 60.3906 244.866 61.3149C244.866 63.8345 237.68 73.7466 234.67 77.5262C231.828 81.1394 227.899 81.6434 227.899 82.1475C227.899 82.5677 228.735 82.9873 230.156 82.9873C231.995 82.9873 232.58 82.3156 235.087 81.9801C236.927 81.7276 237.93 81.6433 238.849 79.7956C241.523 74.2508 245.285 67.4458 250.551 54.5933C257.154 38.4658 260.832 28.3843 262.671 28.3843C263.674 28.3843 264.843 27.964 264.843 27.2083C264.843 26.2832 264.426 26.1994 263.089 26.1994ZM66.2704 27.2928C70.1158 27.2928 75.0465 33.5082 75.0465 35.6084C75.0465 36.1124 74.964 36.2804 74.0443 36.4482C67.7753 37.4563 63.2616 38.5501 58.9154 38.5501C57.9115 38.5501 57.9119 38.4654 57.9119 38.0452C57.9119 36.8677 59.9187 27.2928 66.2704 27.2928ZM163.731 27.2928C167.577 27.2928 172.508 33.5082 172.508 35.6084C172.508 36.1124 172.424 36.2804 171.504 36.4482C165.235 37.4563 160.722 38.5501 156.377 38.5501C155.374 38.5501 155.373 38.4654 155.373 38.0452C155.373 36.8677 157.379 27.2928 163.731 27.2928ZM211.941 27.2928C215.786 27.2928 220.719 33.5082 220.719 35.6084C220.719 36.1124 220.635 36.2804 219.715 36.4482C213.446 37.4563 208.933 38.5501 204.586 38.5501C203.583 38.5501 203.583 38.4654 203.583 38.0452C203.583 36.8677 205.588 27.2928 211.941 27.2928ZM21.8 30.7395C32.2738 30.7395 39.3844 37.5005 39.3844 46.1934C39.3844 54.5957 34.0038 59.6194 26.7008 59.6194C23.625 59.6194 20.5511 58.9429 19.4932 57.7833C18.6292 56.8171 18.34 51.4092 18.34 50.5393V33.25C18.34 31.1257 19.109 30.7395 21.8 30.7395ZM69.4528 70.1664C67.4782 70.1664 65.8314 71.3636 65.8314 73.3473C65.8314 77.1174 70.7738 76.4453 70.7738 78.5439C70.7738 79.3797 70.1373 80.1009 68.8491 80.1009C67.9843 80.1009 66.8919 79.6923 65.9776 79.0693L65.1626 80.5123C66.076 81.1508 67.3151 81.7587 68.8492 81.7587C70.986 81.7587 72.7639 80.3797 72.7639 78.4783C72.7639 74.6577 67.8215 75.8068 67.8215 73.2648C67.8215 72.4291 68.3763 71.823 69.4529 71.823C70.415 71.823 71.1648 72.1511 71.9971 72.5767L72.6987 71.1665C71.7535 70.577 70.6267 70.1664 69.4528 70.1664ZM108.855 70.1664C105.495 70.1664 103.995 72.577 103.995 75.9541C103.995 79.1673 105.479 81.7587 108.855 81.7587C112.231 81.7587 113.717 79.1673 113.717 75.9541C113.717 72.577 112.215 70.1664 108.855 70.1664ZM135.049 70.1664C131.688 70.1664 130.04 72.5931 130.04 75.971C130.04 79.4134 131.542 81.7587 134.983 81.7587C136.484 81.7587 137.887 81.1345 139.029 80.0852L138.034 78.8073C137.12 79.6438 136.077 80.101 135.081 80.101C133.009 80.101 132.03 78.6104 132.03 75.9541C132.03 73.3149 133.075 71.823 135.049 71.823C136.109 71.823 136.892 72.2006 137.756 72.9213L138.768 71.6095C137.593 70.6417 136.435 70.1664 135.049 70.1664ZM177.517 70.1664C174.156 70.1664 172.657 72.577 172.657 75.9541C172.657 79.1673 174.141 81.7587 177.517 81.7587C180.894 81.7587 182.379 79.1673 182.379 75.9541C182.379 72.577 180.878 70.1664 177.517 70.1664ZM21.4259 70.3303L19.5494 70.528V81.5779H21.491V74.0366H21.5236L26.2378 81.5779H27.967V70.3472H26.0254V77.7259H25.9772L21.4259 70.3303ZM46.3289 70.3303V81.5778H53.1151L53.2623 79.9213H48.2704V76.7416H52.463V75.085H48.2704V71.9868H52.9846V70.3303H46.3289ZM116.214 70.3303V81.5778H118.154V76.7416H122.266V75.085H118.154V71.9868H122.738V70.3303H116.214ZM146.223 70.3303L143.957 70.5111L140.025 81.5778H141.836L142.765 78.8715H147.268L148.198 81.5778H150.189L146.223 70.3303ZM164.88 70.3303V81.5778H166.821V76.7416H170.933V75.085H166.821V71.9868H171.406V70.3303H164.88ZM195.445 70.3303L193.568 70.528V81.5779H195.509V74.0366H195.543L200.256 81.5779H201.985V70.3472H200.044V77.7259H199.995L195.445 70.3303ZM214.15 70.3303L211.882 70.5111L207.951 81.5778H209.762L210.692 78.8715H215.193L216.123 81.5778H218.114L214.15 70.3303ZM8.58345 70.3472V77.6749C8.58345 80.1999 9.96955 81.7586 12.7107 81.7586C15.4341 81.7586 16.8211 80.2004 16.8211 77.6591V70.3472H14.8795V77.7902C14.8795 79.1844 14.2935 80.1008 12.7109 80.1008C11.1119 80.1008 10.5241 79.1836 10.5241 77.7732V70.3472H8.58345ZM30.7321 70.3472V81.5778H32.6726V70.3472H30.7321ZM34.5803 70.3472L38.4298 81.5778H40.5659L44.4324 70.3472H42.5233L40.3872 76.6264C40.3872 76.6264 40.1753 77.2649 39.6204 79.1834H39.5226C38.984 77.2649 38.7727 76.6094 38.7727 76.6094L36.6355 70.3472H34.5803ZM55.831 70.3472V81.5778H57.7715V77.0851H58.7013C59.403 77.0851 59.8109 77.7421 60.137 78.4139L61.6862 81.5778H63.8235L61.6862 77.5281C61.5563 77.2655 61.3601 76.9698 61.0016 76.7562V76.7247C62.4691 76.167 63.1062 75.0198 63.1062 73.6761C63.1062 71.7251 61.8822 70.3472 59.4185 70.3472H55.831ZM75.0754 70.3472V81.5778H77.0159V70.3472H75.0754ZM79.2498 70.3472V72.0196H82.2033V81.5778H84.1438V72.0025H86.9658L87.1131 70.3472H79.2498ZM88.3835 70.3472L91.907 76.7731V81.5778H93.8475V76.7731L97.3723 70.3472H95.2338L93.652 73.545C93.652 73.545 93.4562 73.9538 92.9021 75.2003H92.8539C92.2658 73.9537 92.0533 73.545 92.0533 73.545L90.5693 70.3472H88.3835ZM151.761 70.3472V81.5778H158.368L158.515 79.9213H153.703V70.3472H151.761ZM160.405 70.3472V81.5778H162.345V70.3472H160.405ZM184.053 70.3472V81.5778H185.994V77.0851H186.924C187.625 77.0851 188.034 77.7421 188.36 78.4139L189.909 81.5778H192.046L189.909 77.5281C189.779 77.2655 189.583 76.9698 189.224 76.7562V76.7247C190.692 76.167 191.329 75.0198 191.329 73.6761C191.329 71.7251 190.105 70.3472 187.641 70.3472H184.053ZM204.424 70.3472V81.5778H206.364V70.3472H204.424ZM108.852 71.8229C110.777 71.8229 111.707 73.5113 111.707 75.954C111.707 78.3968 110.762 80.1008 108.852 80.1008C106.928 80.1008 105.982 78.396 105.982 75.9369C105.982 73.4942 106.928 71.8229 108.852 71.8229ZM177.513 71.8229C179.438 71.8229 180.368 73.5113 180.368 75.954C180.368 78.3968 179.422 80.1008 177.513 80.1008C175.588 80.1008 174.643 78.396 174.643 75.9369C174.643 73.4942 175.588 71.8229 177.513 71.8229ZM57.7713 72.0195H59.3701C60.6916 72.0195 61.1162 72.6425 61.1162 73.6919C61.1162 74.7576 60.5774 75.4456 59.4027 75.4456H57.7713V72.0195ZM185.994 72.0195H187.593C188.914 72.0195 189.339 72.6425 189.339 73.6919C189.339 74.7576 188.8 75.4456 187.625 75.4456H185.994V72.0195ZM144.976 72.3144H145.009C145.776 74.6422 145.906 75.0026 145.906 75.0026L146.771 77.4784H143.23L144.095 75.0026C144.095 75.0026 144.226 74.6423 144.976 72.3144ZM212.903 72.3144H212.936C213.702 74.6422 213.834 75.0026 213.834 75.0026L214.697 77.4784H211.157L212.023 75.0026C212.023 75.0026 212.153 74.6423 212.903 72.3144Z" fill="#191919"/>
</g>
<defs>
<clipPath id="clip0_579_6">
<rect width="266" height="84" fill="white"/>
</clipPath>
</defs>
</svg>
