<svg width="33" height="33" viewBox="0 0 33 33" fill="none" xmlns="http://www.w3.org/2000/svg">
<path d="M27.8674 16.4403C27.8674 10.132 22.7535 5.01804 16.4452 5.01804C10.1368 5.01804 5.02293 10.132 5.02293 16.4403C5.02293 22.7486 10.1368 27.8625 16.4452 27.8625C22.7535 27.8625 27.8674 22.7486 27.8674 16.4403ZM31.8903 16.4403C31.8903 24.9704 24.9753 31.8854 16.4452 31.8854C7.91504 31.8854 1 24.9704 1 16.4403C1 7.91015 7.91504 0.995117 16.4452 0.995117C24.9753 0.995117 31.8903 7.91015 31.8903 16.4403Z" fill="black"/>
<path d="M6.62442 25.4202H6.60352C6.60408 25.4129 6.60461 25.4056 6.6052 25.3983C6.61162 25.4056 6.61798 25.4129 6.62442 25.4202Z" fill="black"/>
<path d="M16.4261 17.949C19.9739 17.949 23.0831 19.4701 24.8149 21.7511C24.1301 22.8669 23.2303 23.8336 22.1747 24.5938C21.4384 23.162 19.5544 21.6846 16.4261 21.6846C13.3529 21.6846 11.4804 23.1104 10.7174 24.518C9.67404 23.7457 8.788 22.7696 8.11787 21.6467C9.86448 19.4238 12.9327 17.949 16.4261 17.949Z" fill="black"/>
<path d="M6.62442 7.74805H6.60352C6.60408 7.75534 6.60461 7.76264 6.6052 7.76994C6.61162 7.76265 6.61798 7.75531 6.62442 7.74805Z" fill="black"/>
<path d="M16.4261 15.2192C19.9739 15.2192 23.0831 13.6981 24.8149 11.4171C24.1301 10.3013 23.2303 9.33468 22.1747 8.57446C21.4384 10.0062 19.5544 11.4836 16.4261 11.4836C13.3529 11.4836 11.4804 10.0579 10.7174 8.65023C9.67404 9.42253 8.788 10.3986 8.11787 11.5215C9.86448 13.7445 12.9327 15.2192 16.4261 15.2192Z" fill="black"/>
</svg>
