<svg width="139" height="139" viewBox="0 0 139 139" fill="none" xmlns="http://www.w3.org/2000/svg">
<path d="M16.7858 75.4258H5.54532V68.9285H16.7858C18.6243 68.9285 20.113 68.6277 21.2521 68.0261C22.4111 67.4044 23.2604 66.5622 23.7999 65.4993C24.3395 64.4164 24.6093 63.1832 24.6093 61.7995C24.6093 60.4559 24.3395 59.2025 23.7999 58.0394C23.2604 56.8763 22.4111 55.9338 21.2521 55.2119C20.113 54.49 18.6243 54.129 16.7858 54.129H8.24305V91.3984H0V47.6016H16.7858C20.183 47.6016 23.0805 48.2132 25.4785 49.4365C27.8965 50.6397 29.7349 52.3142 30.9939 54.4599C32.2728 56.5856 32.9122 59.012 32.9122 61.7393C32.9122 64.5668 32.2728 67.0033 30.9939 69.0488C29.7349 71.0943 27.8965 72.6684 25.4785 73.7714C23.0805 74.8743 20.183 75.4258 16.7858 75.4258Z" fill="black"/>
<path d="M59.772 80.0281C59.772 79.1858 59.6421 78.4338 59.3823 77.7721C59.1425 77.0902 58.6929 76.4786 58.0335 75.9372C57.394 75.3757 56.4848 74.8342 55.3058 74.3128C54.1467 73.7714 52.648 73.2099 50.8096 72.6283C48.7713 71.9866 46.8729 71.2647 45.1144 70.4626C43.3558 69.6604 41.8071 68.7279 40.4683 67.6651C39.1494 66.6023 38.1203 65.379 37.3809 63.9953C36.6415 62.5916 36.2718 60.9672 36.2718 59.1223C36.2718 57.3175 36.6515 55.6731 37.4109 54.1892C38.1902 52.7052 39.2893 51.4318 40.7081 50.369C42.1269 49.2861 43.7955 48.4539 45.7139 47.8723C47.6522 47.2908 49.7904 47 52.1284 47C55.3657 47 58.1634 47.5916 60.5214 48.7747C62.8994 49.9579 64.7378 51.5622 66.0367 53.5876C67.3356 55.613 67.9851 57.889 67.9851 60.4158H59.772C59.772 59.0521 59.4822 57.8489 58.9027 56.8061C58.3432 55.7634 57.4839 54.9412 56.3249 54.3396C55.1859 53.738 53.7471 53.4372 52.0086 53.4372C50.33 53.4372 48.9311 53.6878 47.8121 54.1892C46.713 54.6905 45.8837 55.3723 45.3242 56.2346C44.7846 57.0969 44.5149 58.0595 44.5149 59.1223C44.5149 59.9245 44.7047 60.6464 45.0844 61.2881C45.4641 61.9098 46.0336 62.5013 46.7929 63.0628C47.5523 63.6043 48.4915 64.1156 49.6106 64.5969C50.7496 65.0582 52.0685 65.5194 53.5672 65.9806C55.9652 66.7025 58.0634 67.5047 59.8619 68.387C61.6804 69.2694 63.1891 70.2721 64.3881 71.3951C65.6071 72.518 66.5163 73.7814 67.1158 75.1852C67.7353 76.5889 68.045 78.1832 68.045 79.9679C68.045 81.8529 67.6753 83.5374 66.936 85.0214C66.1966 86.5053 65.1375 87.7687 63.7586 88.8115C62.3798 89.8543 60.7212 90.6464 58.7828 91.1878C56.8645 91.7293 54.7163 92 52.3383 92C50.2201 92 48.1218 91.7192 46.0436 91.1578C43.9853 90.5762 42.1169 89.7139 40.4383 88.5709C38.7597 87.4078 37.4208 85.9438 36.4217 84.1791C35.4225 82.3944 34.923 80.3088 34.923 77.9225H43.196C43.196 79.3061 43.4158 80.4893 43.8554 81.4719C44.315 82.4345 44.9545 83.2266 45.7738 83.8483C46.6131 84.4499 47.5923 84.891 48.7113 85.1718C49.8304 85.4525 51.0394 85.5929 52.3383 85.5929C54.0169 85.5929 55.3957 85.3623 56.4748 84.9011C57.5739 84.4198 58.3932 83.758 58.9327 82.9158C59.4922 82.0735 59.772 81.111 59.772 80.0281Z" fill="black"/>
<path d="M89.2995 54.2493L76.86 91.3984H68.1373L84.4436 47.6016H90.0189L89.2995 54.2493ZM99.7007 91.3984L87.2013 54.2493L86.4519 47.6016H92.0572L108.453 91.3984H99.7007ZM99.1312 75.125V81.6524H75.721V75.125H99.1312Z" fill="black"/>
<path d="M125.451 47.6016V91.3984H117.238V47.6016H125.451ZM139 47.6016V54.129H103.84V47.6016H139Z" fill="black"/>
</svg>
