<svg width="139" height="139" viewBox="0 0 139 139" fill="none" xmlns="http://www.w3.org/2000/svg">
<g clip-path="url(#clip0_654_19)">
<path d="M32.4259 83.0374C32.4259 81.9144 32.2512 80.9118 31.9017 80.0294C31.5791 79.1203 30.9743 78.3048 30.0873 77.5829C29.2271 76.8342 28.004 76.1123 26.4181 75.4171C24.859 74.6952 22.843 73.9465 20.37 73.1711C17.6282 72.3155 15.0745 71.3529 12.709 70.2834C10.3436 69.2139 8.26033 67.9706 6.45933 66.5535C4.68522 65.1364 3.30088 63.5053 2.3063 61.6604C1.31172 59.7888 0.814432 57.623 0.814432 55.1631C0.814432 52.7567 1.32516 50.5642 2.34662 48.5856C3.39496 46.607 4.87339 44.9091 6.7819 43.492C8.69041 42.0481 10.9349 40.9385 13.5155 40.1631C16.1229 39.3877 18.9991 39 22.1441 39C26.4987 39 30.262 39.7888 33.4339 41.3663C36.6327 42.9439 39.1057 45.0829 40.8529 47.7834C42.6001 50.484 43.4738 53.5187 43.4738 56.8877H32.4259C32.4259 55.0695 32.0361 53.4652 31.2566 52.0749C30.5039 50.6845 29.3481 49.5882 27.789 48.7861C26.2568 47.984 24.3214 47.5829 21.9828 47.5829C19.7249 47.5829 17.8432 47.9171 16.3379 48.5856C14.8595 49.254 13.7439 50.1631 12.9913 51.3128C12.2655 52.4626 11.9026 53.746 11.9026 55.1631C11.9026 56.2326 12.158 57.1952 12.6687 58.0508C13.1795 58.8797 13.9455 59.6684 14.967 60.4171C15.9885 61.139 17.2518 61.8209 18.7572 62.4626C20.2893 63.0775 22.0635 63.6925 24.0795 64.3075C27.3051 65.2701 30.1276 66.3396 32.5468 67.516C34.993 68.6925 37.0224 70.0294 38.6353 71.5267C40.275 73.0241 41.498 74.7086 42.3045 76.5802C43.1377 78.4519 43.5544 80.5775 43.5544 82.9572C43.5544 85.4706 43.0571 87.7166 42.0625 89.6952C41.068 91.6738 39.6433 93.3583 37.7885 94.7487C35.9338 96.139 33.7027 97.1952 31.0953 97.9171C28.5148 98.639 25.6251 99 22.4263 99C19.577 99 16.7546 98.6257 13.959 97.877C11.1903 97.1016 8.67697 95.9519 6.41901 94.4278C4.16105 92.877 2.36006 90.9251 1.01604 88.5722C-0.327988 86.1925 -1 83.4118 -1 80.2299H10.1285C10.1285 82.0749 10.4242 83.6524 11.0156 84.9626C11.6338 86.246 12.494 87.3021 13.5961 88.131C14.7251 88.9332 16.0422 89.5214 17.5475 89.8957C19.0528 90.2701 20.6791 90.4572 22.4263 90.4572C24.6843 90.4572 26.5391 90.1497 27.9906 89.5348C29.469 88.893 30.5711 88.0107 31.2969 86.8877C32.0496 85.7647 32.4259 84.4813 32.4259 83.0374Z" fill="black"/>
<path d="M72.145 48.6658L55.4119 98.1979H43.6786L65.6131 39.8021H73.1127L72.145 48.6658ZM86.1363 98.1979L69.3226 48.6658L68.3145 39.8021H75.8545L97.91 98.1979H86.1363ZM85.3702 76.5V85.2032H53.8797V76.5H85.3702Z" fill="black"/>
<path d="M120.775 39.8021V98.1979H109.727V39.8021H120.775ZM139 39.8021V48.5053H91.7038V39.8021H139Z" fill="black"/>
</g>
<defs>
<clipPath id="clip0_654_19">
<rect width="139" height="139" fill="white"/>
</clipPath>
</defs>
</svg>
