<svg width="164" height="84" viewBox="0 0 164 84" fill="none" xmlns="http://www.w3.org/2000/svg">
<g clip-path="url(#clip0_655_174)">
<path d="M98.022 5.85919C97.8405 5.82311 93.8485 4.63261 85.8644 4.45223L83.687 0.15918L81.5095 4.45223C73.5254 4.63261 69.5334 5.78704 69.352 5.85919L68.5898 6.07565V23.9694V24.0776C68.6261 24.4383 69.6423 32.5554 83.2515 38.2915L83.687 38.4719L84.1225 38.2915C97.7317 32.5915 98.7478 24.4383 98.7841 24.0776V6.07565L98.022 5.85919ZM70.7673 23.8972V7.73514C72.1464 7.41046 75.34 6.83324 80.3845 6.65286L78.461 10.4408L77.6263 9.32249L74.1787 13.7598V29.7415C71.348 26.7833 70.8399 24.258 70.7673 23.8972ZM77.6263 13.2548L78.6788 14.6257V33.4934C77.9167 32.9884 77.1909 32.4833 76.5739 32.0143V14.6257L77.6263 13.2548ZM83.687 36.127C82.7434 35.7301 81.8724 35.2972 81.0377 34.8643V13.7959L79.9853 12.4611L83.687 5.20982L87.3524 12.4611L86.2999 13.7959V34.8643C85.5015 35.2972 84.6305 35.6941 83.687 36.127ZM90.8 31.9782C90.1831 32.4833 89.4573 32.9884 88.6952 33.4573V14.6257L89.7476 13.2548L90.8 14.6257V31.9782ZM96.6066 23.8972C96.5341 24.258 96.026 26.7833 93.1953 29.8137V13.7959L89.7476 9.35856L88.8766 10.4769L86.9895 6.65286C92.0339 6.83324 95.2276 7.44654 96.6066 7.73514V23.8972Z" fill="#191919"/>
<path d="M0.145165 58.6751C0.145165 58.6751 1.66939 60.1903 3.62912 60.1903C4.64527 60.1903 5.37109 59.5048 5.37109 58.6751C5.37109 56.5827 0.108874 56.4744 0.108874 52.8668C0.108874 50.8826 1.56052 49.2231 3.88316 49.2231C5.47997 49.2231 6.67758 49.7282 7.33082 50.1611L6.85903 52.001C6.85903 52.001 5.62513 50.9909 3.81057 50.9909C3.12104 50.9909 2.32264 51.532 2.32264 52.3978C2.32264 54.5263 7.65744 54.5263 7.65744 58.2782C7.65744 60.3706 6.1695 61.9941 3.77428 61.9941C1.37906 61.9941 0 60.7314 0 60.7314L0.145165 58.6751Z" fill="#191919"/>
<path d="M22.9346 55.4999C22.9346 59.1797 20.358 61.9936 16.9829 61.9936C13.3538 61.9936 11.2852 59.2518 11.2852 55.7164C11.2852 52.0366 13.8255 49.2588 17.2006 49.2588C21.0112 49.2588 22.9346 51.8563 22.9346 55.4999ZM17.0917 60.1898C19.0515 60.1898 20.358 58.2417 20.358 55.6082C20.358 52.9746 19.0515 51.0265 17.0917 51.0265C15.132 51.0265 13.8255 52.9746 13.8255 55.6082C13.8255 58.2417 15.132 60.1898 17.0917 60.1898Z" fill="#191919"/>
<path d="M35.4201 51.3154L35.166 49.4033H37.5612V56.7989C37.5612 59.9014 35.4926 61.9938 32.2264 61.9938C27.4723 61.9938 27.3634 57.5926 27.3634 57.304V51.3514L27.1094 49.4394H29.7949V57.1236C29.7949 58.9635 30.9925 60.154 32.5893 60.154C34.1862 60.154 35.4563 58.8192 35.4563 56.9793V51.3154H35.4201Z" fill="#191919"/>
<path d="M41.373 49.439H51.6797V51.3149H47.6877V60.1896L47.9055 61.777H45.2925V51.3149H41.373V49.439Z" fill="#191919"/>
<path d="M66.4495 60.1539L66.6673 61.7413H64.0543V56.5463H58.284V60.1539L58.5018 61.7413H55.8888V51.3153L55.6348 49.4033H58.3203V54.49H64.0906V51.2792L63.8366 49.3672H66.5221V60.1539H66.4495Z" fill="#191919"/>
<path d="M83.3607 61.9573L81.6914 61.5966L79.5139 55.8605L77.0824 61.9573L75.413 61.5966L71.7113 51.7117L70.5137 49.439H73.4895L76.2114 57.1592L76.4654 58.6023L76.8646 57.1592L78.4977 53.0826L77.155 49.439H79.8042L82.526 57.1592L82.7801 58.6023L83.1793 57.1592L86.0463 49.439H88.3689L83.3607 61.9573Z" fill="#191919"/>
<path d="M92.1056 51.3154L91.8516 49.4033H98.9646V51.2432H94.5371V54.49H98.4566L97.9848 56.3299H94.5371V59.9014H99.2187L98.7469 61.7413H92.1419V51.3154H92.1056Z" fill="#191919"/>
<path d="M103.212 58.6751C103.212 58.6751 104.736 60.1903 106.696 60.1903C107.712 60.1903 108.437 59.5048 108.437 58.6751C108.437 56.5827 103.175 56.4744 103.175 52.8668C103.175 50.8826 104.627 49.2231 106.95 49.2231C108.546 49.2231 109.744 49.7282 110.397 50.1611L109.925 52.001C109.925 52.001 108.692 50.9909 106.877 50.9909C106.187 50.9909 105.389 51.532 105.389 52.3978C105.389 54.5263 110.724 54.5263 110.724 58.2782C110.724 60.3706 109.236 61.9941 106.841 61.9941C104.445 61.9941 103.066 60.7314 103.066 60.7314L103.212 58.6751Z" fill="#191919"/>
<path d="M113.953 49.439H124.26V51.3149H120.268V60.1896L120.486 61.777H117.873V51.3149H113.953V49.439Z" fill="#191919"/>
<path d="M128.434 51.3154L128.18 49.4033H135.293V51.2432H130.865V54.49H134.785L134.313 56.3299H130.865V59.9014H135.547L135.075 61.7413H128.47V51.3154H128.434Z" fill="#191919"/>
<path d="M146.361 61.7413L143.276 57.3761H142.333V60.154L142.551 61.7413H139.938V51.3154L139.684 49.4033H143.53C145.744 49.4033 147.922 50.6299 147.922 53.2274C147.922 54.5983 146.978 56.1135 145.599 56.835L149.446 61.7052H146.361V61.7413ZM143.168 55.6445C144.329 55.6445 145.381 54.5622 145.381 53.2635C145.381 51.8565 144.329 51.135 143.168 51.135H142.333V55.6445H143.168Z" fill="#191919"/>
<path d="M163.854 60.154L163.999 61.7413H162.475L156.233 54.7426L155.507 53.5881V60.154L155.725 61.7413H153.402V51.3154L153.148 49.4033H154.999L161.096 56.5103L161.786 57.6647V51.3154L161.532 49.4033H163.927V60.154H163.854Z" fill="#191919"/>
<path d="M31.174 73.3583L30.9199 71.4463H33.3151V78.8058C33.3151 81.9083 31.2465 84.0007 27.9803 84.0007C23.2262 84.0007 23.1173 79.5995 23.1173 79.3109V73.3583L22.8633 71.4463H25.5488V79.1666C25.5488 81.0064 26.7464 82.1969 28.3432 82.1969C29.9401 82.1969 31.2103 80.8621 31.2103 79.0223V73.3583H31.174Z" fill="#191919"/>
<path d="M48.9933 82.1969L49.1385 83.7843H47.6143L41.3722 76.7855L40.6464 75.6311V82.1969L40.8641 83.7843H38.4689V73.3583L38.2148 71.4463H40.0657L46.1626 78.5533L46.8521 79.7077V73.3583L46.5981 71.4463H48.9933V82.1969Z" fill="#191919"/>
<path d="M56.9051 82.1969L57.1229 83.7843H54.5099V73.3583L54.2559 71.4463H56.9414V82.1969H56.9051Z" fill="#191919"/>
<path d="M67.5023 84.0008L65.8329 83.64L62.1312 73.7552L60.9336 71.4824H63.9095L66.6313 79.2027L66.9216 80.6457L67.3208 79.2027L70.1878 71.4824H72.5105L67.5023 84.0008Z" fill="#191919"/>
<path d="M76.6095 73.3583L76.3555 71.4463H83.4685V73.2862H79.041V76.533H82.9605L82.4887 78.3729H79.041V81.9444H83.7226L83.2508 83.7843H76.6458V73.3583H76.6095Z" fill="#191919"/>
<path d="M94.5741 83.7843L91.4893 79.4191H90.5457V82.1969L90.7635 83.7843H88.1505V73.3583L87.8965 71.4463H91.7434C93.9571 71.4463 96.1346 72.6729 96.1346 75.2703C96.1346 76.6412 95.191 78.1564 93.8119 78.8779L97.6588 83.7482H94.5741V83.7843ZM91.3804 77.6514C92.5418 77.6514 93.5942 76.5691 93.5942 75.2703C93.5942 73.8634 92.5418 73.1419 91.3804 73.1419H90.5457V77.6514H91.3804Z" fill="#191919"/>
<path d="M101.036 80.6809C101.036 80.6809 102.56 82.1961 104.52 82.1961C105.536 82.1961 106.262 81.5107 106.262 80.6809C106.262 78.5885 100.999 78.4803 100.999 74.8727C100.999 72.8885 102.451 71.229 104.774 71.229C106.371 71.229 107.568 71.7341 108.221 72.167L107.75 74.0069C107.75 74.0069 106.516 72.9967 104.701 72.9967C104.012 72.9967 103.213 73.5379 103.213 74.4037C103.213 76.5322 108.548 76.5322 108.548 80.2841C108.548 82.3765 107.06 83.9999 104.665 83.9999C102.27 83.9999 100.891 82.7373 100.891 82.7373L101.036 80.6809Z" fill="#191919"/>
<path d="M115.514 82.1969L115.732 83.7843H113.119V73.3583L112.865 71.4463H115.551V82.1969H115.514Z" fill="#191919"/>
<path d="M119.543 71.4463H129.85V73.3222H125.858V82.1969L126.075 83.7843H123.462V73.3222H119.579V71.4463H119.543Z" fill="#191919"/>
<path d="M139.432 82.197L139.65 83.7843H137.037V78.4451L134.206 73.0337L133.045 71.4824H135.985L138.162 75.6672L138.416 76.3888L138.67 75.6672L140.848 71.4824H143.243L139.432 78.2647V82.197Z" fill="#191919"/>
</g>
<defs>
<clipPath id="clip0_655_174">
<rect width="164" height="84" fill="white"/>
</clipPath>
</defs>
</svg>
