<svg width="100" height="84" viewBox="0 0 100 84" fill="none" xmlns="http://www.w3.org/2000/svg">
<g clip-path="url(#clip0_655_64)">
<g clip-path="url(#clip1_655_64)">
<path d="M88.6905 28.8402L81.6168 43.6284L74.5431 28.8402H63.8549V35.5338H66.3035V55.9648H63.7383V62.6584H75.7869V55.9648H73.1828V41.488L81.6751 59.0003L90.1674 41.488V55.9648H87.6023V62.6584H99.6508V55.9648H97.0857V35.5338H99.6508V28.8013L88.6905 28.8402Z" fill="#171717"/>
<path d="M14.6498 28.6846H28.9915V35.3392H27.2425L36.1818 55.9649H39.8352V62.6195H26.815V56.0038H28.7583L27.3202 52.5792H16.5931L15.155 56.0038H17.0984V62.6585H4.07812V56.0038H7.73157L16.6708 35.3782H14.7275V28.7235L14.6498 28.6846ZM21.9567 40.1649L19.4304 45.9245H24.483L21.9567 40.1649Z" fill="#171717"/>
<path d="M14.6496 3H88.8844V24.2872H74.2707V16.2315H58.9184V67.0951H67.0804V81.6108H36.2982V67.0951H44.4601V16.2315H29.1079V24.2872H14.4941V3H14.6496Z" fill="#171717"/>
<path d="M17.4082 5.99658H84.4139L80.3718 9.10988H20.5952L17.4082 5.99658Z" fill="#191919" fill-opacity="0.35"/>
<path d="M52.8555 10.1997L55.9259 13.2352V70.2864L52.8555 73.3219V10.1997Z" fill="#191919" fill-opacity="0.35"/>
<path d="M85.9689 7.59229V21.5632L82.8984 18.6056V10.7445L85.9689 7.59229Z" fill="#191919" fill-opacity="0.35"/>
<path d="M64.1074 70.0137V78.692L60.998 75.7733V73.2437L64.1074 70.0137Z" fill="#191919" fill-opacity="0.35"/>
</g>
</g>
<defs>
<clipPath id="clip0_655_64">
<rect width="100" height="84" fill="white"/>
</clipPath>
<clipPath id="clip1_655_64">
<rect width="96" height="79" fill="white" transform="translate(4 3)"/>
</clipPath>
</defs>
</svg>
