<svg width="368" height="84" viewBox="0 0 368 84" fill="none" xmlns="http://www.w3.org/2000/svg">
<g clip-path="url(#clip0_655_82)">
<path d="M34.462 23.8218C31.3356 20.6734 26.6785 19.1396 20.2216 19.1358C11.9188 19.129 6.50966 21.7208 3.68486 27.0621C1.31916 31.5363 1.25866 37.2168 1.20556 42.2318C1.13316 49.051 1.44106 56.0926 5.98026 60.6627C8.67366 63.376 12.5081 64.8871 17.6466 65.2576L17.805 39.2698L16.8253 32.3927H23.6224L22.6429 39.2698L22.8009 65.2576C23.0046 65.2423 23.1633 65.2329 23.3642 65.2135C29.9059 64.602 34.3065 62.0563 36.758 57.4236C39.1238 52.9502 39.1836 47.2684 39.2379 42.2548C39.31 35.4349 39.0012 28.3946 34.462 23.8218ZM25.5824 39.2698L26.7455 32.3927H27.9836V31.383L21.528 27.2114V26.1101C21.3619 25.9301 21.162 25.7847 20.9397 25.6821C20.7174 25.5796 20.477 25.5219 20.2324 25.5124C19.7357 25.5324 19.2666 25.7461 18.9256 26.1078V27.2098H20.2336L20.9321 28.0723H17.5876L16.3561 28.8681H21.5764L22.276 29.7321H15.0194L13.7935 30.5246L22.9211 30.5257L23.6224 31.3893L14.4909 31.3887H12.4593V32.3944L13.6669 32.3951C13.9861 33.8478 14.7737 39.2699 14.7737 39.2699L14.2949 60.5255C12.2884 60.117 10.44 59.1447 8.96686 57.7226C5.56636 54.2956 5.34276 48.2117 5.40546 42.2755C5.50936 32.5215 5.60706 23.3072 20.2175 23.3191C25.496 23.3225 29.1784 24.449 31.4754 26.7625C34.8777 30.1903 35.0997 36.2735 35.0378 42.2091C34.9487 50.3792 34.8642 58.1656 26.2575 60.4768L25.5824 39.2698ZM37.2977 42.2385C37.2064 50.698 37.1061 60.2847 26.3374 62.8001L26.3318 62.8015V62.7807L26.2922 61.5619V61.5416C35.8848 59.1629 35.9771 50.567 36.0662 42.225L36.073 40.8148C36.073 35.1679 35.6066 29.4704 32.2063 26.0459C29.7063 23.5278 25.7861 22.3006 20.2197 22.2984C4.58826 22.2869 4.48046 32.4452 4.37706 42.2701C4.37136 42.7383 4.36776 43.2111 4.36776 43.6826C4.36776 49.3725 4.83636 55.0228 8.23516 58.4474C9.98046 60.2057 12.2506 61.2742 15.3795 61.8113L15.7684 39.2765L14.6684 32.3974H14.689V32.3928H15.7645L15.7661 32.3974H15.7865C15.7987 32.4681 16.877 39.2711 16.877 39.274C16.877 39.274 16.5162 63.047 16.5105 63.0524C16.5105 63.0524 16.4994 63.1929 16.4759 63.2069C12.4695 62.7291 9.48806 61.4545 7.35886 59.3112C3.34566 55.2677 3.07546 48.6689 3.14446 42.255C3.25136 32.3204 3.37046 21.0583 20.2197 21.0712C26.1324 21.0752 30.3406 22.4213 33.0829 25.1859C37.0983 29.2276 37.3673 35.8269 37.2977 42.2385Z" fill="#191919"/>
<path d="M19.2578 35.3259V45.1289L20.1557 42.5181L21.1696 42.5152C21.1712 41.9803 21.1835 35.6868 21.18 35.3259C21.1721 33.8592 19.2578 33.7813 19.2578 35.3259ZM57.4127 49.0068V33.9316C57.5906 33.9316 58.451 33.9276 58.451 33.9276C62.265 33.9006 62.265 33.9006 62.8584 37.6377L62.8731 37.7287H64.0204V32.8902H48.1021V37.7287H49.2513L49.2647 37.6377C49.8303 33.8947 49.9734 33.8974 53.6293 33.9276C53.6293 33.9276 54.5313 33.9316 54.7106 33.9316V49.0068C54.7106 50.716 54.2858 50.7691 52.0296 50.7691H51.9213V51.7047L56.064 51.6498L58.0571 51.6777L60.1999 51.7047L60.201 51.5967V50.7689H60.0928C57.8374 50.7689 57.4127 50.7157 57.4127 49.0068ZM82.5512 49.2352L82.3821 49.0227C81.6016 48.0042 78.521 43.4278 77.5873 41.9361C80.8676 41.5287 82.4057 39.968 82.4057 37.0148C82.4057 32.835 79.7265 32.835 76.3329 32.835L72.8521 32.8692L71.1144 32.8899L67.1125 32.8323L67.1118 32.9422V33.768H67.2199C68.6115 33.768 69.2334 33.8734 69.515 34.1534C69.7628 34.4015 69.7628 34.8315 69.7628 35.4859V49.0504C69.7628 49.7042 69.7628 50.1365 69.515 50.385C69.2334 50.6651 68.6115 50.7686 67.2199 50.7686H67.1118V51.7043L71.1159 51.6494L75.1153 51.7043V50.7688H75.0073C73.6171 50.7688 72.994 50.6653 72.7135 50.3852C72.4701 50.1421 72.4653 49.7233 72.4653 49.0929V42.3489H72.5659C73.163 42.3121 73.762 42.3752 74.3382 42.5358C75.1165 42.812 78.7646 48.2746 80.8793 51.6533L80.9133 51.7046L82.9929 51.6497L85.0825 51.7074L85.0855 51.5967V50.7769L84.9845 50.7698C83.6824 50.6707 83.207 50.07 82.5512 49.2352ZM79.4 37.455C79.4 40.9801 77.0307 41.2525 73.6831 41.2525L73.4143 41.2552C73.0971 41.2653 72.7797 41.2489 72.4652 41.2061V33.9029C72.6357 33.8975 73.4221 33.8718 73.4221 33.8718L75.4767 33.8227C78.447 33.8226 79.4 34.7061 79.4 37.455ZM95.6955 51.7045L95.6965 51.5964V50.7688H95.5885C93.4895 50.7688 93.0465 50.7103 93.0465 49.0065V35.5305C93.0465 33.833 93.5315 33.7682 95.5885 33.7682H95.6965V32.8326L95.5855 32.8353L91.6925 32.8902L87.6935 32.8326L87.6925 32.9424V33.7682H87.8015C89.8985 33.7682 90.3435 33.8281 90.3435 35.5305V49.0067C90.3435 50.7106 89.8985 50.7691 87.8015 50.7691H87.6925V51.7047L91.6975 51.6498L95.6955 51.7045ZM106.348 51.5964V50.7689H106.238C104.175 50.7689 103.808 50.6374 103.808 49.0065V36.0227C104.184 36.5301 115.442 51.6496 115.442 51.6496H117.809V35.5307C117.809 33.8774 118.092 33.7684 120.075 33.7684H120.184V32.8326L116.923 32.8902L113.671 32.8326L113.67 32.9425V33.7682H113.777C115.842 33.7682 116.21 33.8993 116.21 35.5306V48.1366C115.834 47.6414 104.553 32.8339 104.553 32.8339L102.149 32.8901L99.6705 32.8325L99.6695 32.9424V33.7681H99.7775C101.705 33.7681 102.211 33.8393 102.211 35.5305V49.0068C102.211 50.6376 101.842 50.7691 99.7775 50.7691H99.6695V51.7057L103.012 51.6498L106.346 51.7057L106.348 51.5964ZM127.792 32.8901L123.793 32.8326V33.7682H123.901C125.997 33.7682 126.443 33.8281 126.443 35.5305V49.0067C126.443 50.7106 125.997 50.7691 123.901 50.7691H123.793V51.7047L127.795 51.6498L131.795 51.7047L131.796 51.5966V50.7688H131.687C129.59 50.7688 129.145 50.7103 129.145 49.0065V35.5305C129.145 33.833 129.629 33.7682 131.687 33.7682H131.796V32.8326L131.685 32.8353L127.792 32.8901ZM150.862 32.8902H134.941V37.7287H136.092L136.105 37.6377C136.67 33.8947 136.812 33.8974 140.47 33.9276C140.47 33.9276 141.371 33.9316 141.55 33.9316V49.0068C141.55 50.716 141.127 50.7691 138.87 50.7691H138.761V51.7047L142.904 51.6498L144.898 51.6777L147.042 51.7047V50.7689H146.932C144.676 50.7689 144.253 50.7158 144.253 49.0065V33.9316C144.429 33.9316 145.29 33.9276 145.29 33.9276C149.105 33.9006 149.105 33.9006 149.699 37.6377L149.712 37.7287H150.862V32.8902ZM172.41 32.8353L169.427 32.8902L166.34 32.8326V33.7142H166.448C167.365 33.7142 168.299 33.8114 168.299 34.54C168.3 34.5566 168.303 34.5746 168.303 34.5918C168.256 35.0142 168.09 35.4144 167.823 35.7449C167.818 35.7529 164.678 41.2277 164.126 42.1935L160.051 35.5022L159.952 35.3522C159.791 35.1656 159.691 34.9341 159.665 34.689C159.665 34.6461 159.67 34.6033 159.678 34.5611C159.808 33.8308 160.538 33.7916 161.465 33.7412L162.001 33.7084L162 33.6043V32.8326L157.829 32.8902L153.638 32.8326L153.637 32.9425V33.7048L153.736 33.7143C155.732 33.8925 156.326 34.8336 157.626 36.9002L158.514 38.2852L161.138 42.4361C161.761 43.3828 161.811 43.5485 161.811 44.6607V49.0068C161.811 50.716 161.382 50.7691 159.102 50.7691H158.993V51.7048L161.152 51.6777L163.163 51.6498L165.173 51.6777L167.328 51.7048L167.329 51.5967V50.7689H167.221C164.942 50.7689 164.513 50.7158 164.513 49.0066V44.7714C164.54 44.1462 164.734 43.5394 165.075 43.0136L168.941 36.9079L169.433 36.0907C170.209 34.7665 170.72 33.8907 172.424 33.7142L172.522 33.7029V32.8326L172.41 32.8353ZM200.359 32.9519L196.799 32.8947L196.798 33.0007V33.7599H196.902C199.809 33.7599 199.81 33.9611 199.81 35.5267V44.8741C199.81 48.9273 198.032 50.6563 193.862 50.6563C192.027 50.6563 190.722 50.2394 189.872 49.3792C189.012 48.5102 188.609 47.172 188.638 45.2881V35.481C188.638 34.8281 188.637 34.3968 188.887 34.1478C189.172 33.865 189.802 33.7597 191.212 33.7597H191.316V32.8952L187.276 32.9519L185.381 32.9248L183.381 32.8947L183.38 33.0007V33.7599H183.484C184.779 33.7599 185.392 33.8688 185.671 34.1467C185.919 34.3934 185.919 34.8095 185.919 35.4384V45.5891C185.919 49.8053 188.234 51.855 192.997 51.855C198.976 51.855 201.415 49.8243 201.415 44.8471V35.4382C201.414 34.8137 201.414 34.4003 201.665 34.1505C201.943 33.8731 202.568 33.7597 203.821 33.7597H203.924V32.8947L203.819 32.8965L200.359 32.9519ZM220.285 32.8947V33.7599H220.389C222.408 33.7599 222.989 33.8355 222.989 35.5267V48.1465C222.626 47.6711 211.348 32.8951 211.348 32.8951L208.922 32.9518L206.424 32.8942L206.422 33.0002V33.7594H206.527C208.479 33.7594 208.989 33.8296 208.989 35.5262V49.0047C208.989 50.641 208.617 50.7716 206.527 50.7716H206.422V51.6369L209.794 51.5793L213.158 51.6369L213.159 51.5309V50.7716H213.053C210.964 50.7716 210.592 50.641 210.592 49.0047V36.0055C210.957 36.4942 222.204 51.5793 222.204 51.5793H224.592V35.5264C224.592 33.869 224.881 33.7596 226.887 33.7596H226.992V32.8947L223.704 32.9518L220.285 32.8947ZM233.862 32.9519L229.828 32.8952L229.827 33.0005V33.7597H229.932C232.057 33.7597 232.506 33.8191 232.506 35.5265V49.0048C232.506 50.7122 232.056 50.7716 229.932 50.7716H229.827V51.6361L233.867 51.5795L237.901 51.6363L237.902 51.5309V50.7716H237.798C235.674 50.7716 235.225 50.7122 235.225 49.0048V35.5265C235.225 33.8245 235.716 33.7597 237.798 33.7597H237.902V32.8952L237.797 32.8965L233.862 32.9519ZM256.321 32.9519L253.18 32.8947L253.179 33.0007V33.6919L253.638 33.7536C254.337 33.8366 255.293 33.9512 255.356 34.628C255.404 35.0137 255.367 35.4053 255.247 35.7752C255.249 35.7689 251.325 46.8257 250.66 48.697C250.469 48.1729 245.962 35.7667 245.962 35.7667C245.82 35.4107 245.736 35.0348 245.711 34.6527C245.711 34.6169 245.713 34.5812 245.717 34.5456C245.717 33.8711 246.614 33.8076 247.406 33.7513L248.036 33.6955L248.032 33.601V32.8955L244.019 32.9522L240.013 32.8955V33.7046H240.117C241.635 33.7046 241.933 33.8496 242.697 35.8389L248.777 51.5795H250.788L257.091 35.8398C257.614 34.2365 257.786 34.0771 259.389 33.7016L259.47 33.6831V32.8947L259.362 32.8965L256.321 32.9519ZM261.3 32.8965V33.7596H261.404C262.815 33.7596 263.444 33.865 263.728 34.1482C263.978 34.3972 263.978 34.829 263.978 35.4818V48.9948C263.978 49.6477 263.978 50.079 263.728 50.3276C263.444 50.6112 262.815 50.7166 261.404 50.7166H261.3V51.5795H276.656V46.0402H274.979L274.969 46.1339C274.588 49.9278 274.429 50.414 271.584 50.469H266.696V42.3965H268.769C271.373 42.3965 271.399 42.7794 271.484 44.0492L271.604 45.236L271.698 45.2297H273.03V38.4203H271.594V38.5247C271.594 41.1021 271.274 41.2542 268.769 41.2542H266.696V33.87H271.307C274.733 33.87 274.747 34.0757 274.965 37.5121L274.975 37.6661H276.656V32.8965H261.3ZM308.651 40.957L305.443 39.8296C303.909 39.2015 303.252 38.292 303.252 36.7911C303.252 34.7726 304.542 33.7915 307.193 33.7915C310.797 33.7915 310.933 35.5038 311.077 37.317L311.172 38.3062L311.267 38.3027H312.933V33.6151L312.864 33.5903C311.015 32.8945 309.056 32.5383 307.082 32.5391C302.973 32.5391 300.617 34.3897 300.617 37.6167C300.617 40.9806 303.177 41.8932 305.652 42.776L306.33 43.0029C308.623 43.762 310.995 44.5464 310.995 47.2444C310.995 50.1107 308.458 50.7123 306.329 50.7123C302.199 50.7123 302.109 48.9545 301.993 46.7283L301.906 45.482L301.809 45.4856H299.836V50.6357L299.898 50.6628C301.814 51.4805 303.882 51.8867 305.966 51.8551C311.18 51.8551 313.714 50.0594 313.714 46.3646C313.713 43.0235 311.212 41.8612 308.651 40.957ZM321.28 32.9519L317.245 32.8952L317.244 33.0005V33.7597H317.348C319.473 33.7597 319.922 33.8191 319.922 35.5265V49.0048C319.922 50.7122 319.473 50.7716 317.348 50.7716H317.244V51.6361L321.284 51.5794L325.319 51.6361L325.32 51.5307V50.7716H325.216C323.092 50.7716 322.641 50.7122 322.641 49.0048V35.5265C322.641 33.8245 323.133 33.7597 325.216 33.7597H325.32V32.8952L325.213 32.8965L321.28 32.9519ZM328.264 32.9515V37.7206H329.853L329.866 37.6323C330.437 33.8871 330.581 33.888 334.279 33.9186L335.377 33.924V49.0047C335.377 50.7176 334.947 50.7716 332.663 50.7716H332.559V51.6361L334.7 51.6073L336.739 51.5793L338.773 51.6073L340.913 51.6361V50.7716H340.809C338.526 50.7716 338.096 50.7176 338.096 49.0047V33.9244C338.269 33.9231 339.152 33.9195 339.152 33.9195C343.008 33.8918 343.008 33.8918 343.608 37.6333L343.622 37.7206H345.21V32.9515H328.264ZM366.697 32.8965L363.687 32.9518C363.681 32.9518 360.571 32.8946 360.571 32.8946L360.57 33.0007V33.7044H360.675C361.603 33.7044 362.55 33.8035 362.55 34.5361C362.551 34.5537 362.551 34.5714 362.552 34.5892C362.5 35.0109 362.332 35.41 362.067 35.7419C362.063 35.7491 358.875 41.2553 358.329 42.2C358.153 41.9145 354.207 35.4997 354.207 35.4997L354.106 35.3484C353.944 35.1624 353.843 34.9312 353.817 34.6861C353.817 34.6427 353.821 34.5995 353.83 34.557C353.962 33.8217 354.702 33.7812 355.638 33.7312L356.177 33.6989L356.176 33.6012V32.8958L351.968 32.9525L347.738 32.8958L347.737 33.0011V33.6957L347.832 33.7043C349.851 33.883 350.452 34.8259 351.767 36.8925L352.665 38.2793L355.314 42.4316C355.944 43.3765 355.995 43.5431 355.995 44.6589V49.0047C355.995 50.7175 355.561 50.7716 353.254 50.7716H353.15V51.6361L355.304 51.6081L357.356 51.5793L359.406 51.6081L361.559 51.6361V50.7716H361.455C359.148 50.7716 358.713 50.7175 358.713 49.0047V44.7687C358.741 44.1415 358.939 43.5337 359.284 43.0091L363.188 36.902L363.686 36.0825C364.47 34.7578 364.987 33.8826 366.71 33.7038L366.804 33.6946V32.8947L366.697 32.8965ZM295.524 49.2299L295.357 49.0174C294.573 47.9935 291.489 43.4135 290.56 41.9291C293.84 41.5239 295.379 39.9638 295.379 37.0146C295.379 32.8393 292.702 32.8393 289.313 32.8393L285.834 32.8741L284.097 32.8939L280.103 32.8376L280.102 32.943V33.7652H280.206C281.597 33.7652 282.22 33.8696 282.501 34.151C282.751 34.3996 282.751 34.8318 282.751 35.4865V49.0426C282.751 49.6964 282.751 50.1286 282.501 50.378C282.22 50.659 281.597 50.7626 280.206 50.7626H280.102V51.6902L284.099 51.6343L288.091 51.6902L288.092 51.5857V50.7626H287.988C286.597 50.7626 285.974 50.659 285.692 50.378C285.448 50.134 285.444 49.7162 285.444 49.0849V42.3407C285.494 42.3407 285.544 42.3402 285.544 42.3402C286.142 42.3045 286.743 42.3679 287.321 42.528C288.097 42.802 291.744 48.2628 293.861 51.6406L293.892 51.691L295.968 51.6343L298.054 51.6919L298.055 51.5857V50.7707L297.959 50.7635C296.655 50.6653 296.181 50.0629 295.524 49.2299ZM292.382 37.4543C292.382 40.9814 290.012 41.254 286.664 41.254L286.396 41.2563C286.077 41.2664 285.759 41.25 285.444 41.2072V33.8997L286.396 33.8686L288.458 33.82C291.429 33.82 292.382 34.7033 292.382 37.4543Z" fill="#191919"/>
</g>
<defs>
<clipPath id="clip0_655_82">
<rect width="368" height="84" fill="white"/>
</clipPath>
</defs>
</svg>
