<svg width="173" height="84" viewBox="0 0 173 84" fill="none" xmlns="http://www.w3.org/2000/svg">
<g clip-path="url(#clip0_579_44)">
<g clip-path="url(#clip1_579_44)">
<path d="M125.833 1.85889C119.642 2.0466 115.062 6.18394 112.258 10.3047C107.856 17.0075 98.4593 40.8714 93.7011 64.9844C91.0192 67.3994 87.2839 69.0282 84.9134 70.2512C72.3301 76.746 69.4438 62.6529 77.8356 49.4082C81.0011 44.4113 87.5845 44.6614 87.1507 49.6611C84.5805 46.2159 79.74 47.8119 79.1553 52.8886C78.859 59.1265 92.5074 60.4287 92.8846 48.4849C93.4407 30.7292 59.6132 36.2567 59.0561 64.7225C59.0561 64.7225 56.8199 70.6666 51.422 71.6996C47.5289 72.4473 47.5092 65.4224 49.9236 55.4619C51.9299 46.3416 51.8853 47.8432 53.8423 39.6573C55.2976 33.5853 62.0618 9.61871 62.3995 7.61637C62.7296 5.61771 61.5262 3.68282 59.0496 3.11249C57.0435 2.65004 54.4789 2.45384 51.6957 3.79494C48.6703 5.25419 47.6959 8.37161 47.334 10.2139C43.5557 25.2126 41.9925 29.1722 39.3103 40.7395C37.9097 46.659 32.7646 72.0718 24.4198 71.1482C20.0616 70.6694 19.7308 66.1085 21.748 57.2064C24.999 44.7046 28.4196 34.6983 30.7668 24.5142C34.3064 11.2031 26.4169 -1.76326 10.0574 5.09684C0.269712 9.20004 -0.575912 24.6613 5.5496 24.5867C9.01645 24.5456 8.42161 20.2944 8.67634 17.574C9.3702 13.6792 11.5382 11.9406 14.1786 12.1026C18.1056 13.1148 18.3622 15.8202 17.1511 23.2506C14.5758 31.9112 11.0071 43.3917 7.65688 58.2325C2.07209 83.2539 18.3732 84.2096 25.8163 81.0607C30.1279 79.2366 31.9954 77.5077 34.9161 71.7837C38.2298 86.9774 52.3878 83.6801 60.8232 72.8354C62.276 77.8556 67.0214 81.1739 71.0524 81.7314C81.5258 83.7404 90.9135 75.9183 94.0033 73.0201C96.2669 88.2734 116.628 81.8853 122.813 73.0964C129.266 87.6998 141.424 81.887 144.81 72.98C144.727 82.1386 151.746 84.3565 158.974 80.503C163.194 78.409 164.032 77.7154 169.365 72.6954C173.053 69.0085 171.302 61.5474 162.364 69.2472C159.453 71.7571 153.268 74.3298 156.988 64.9318C157.775 62.6069 164.337 46.6699 164.739 45.2333C168.804 34.2967 153.837 36.6212 151.802 44.7757C142.092 27.0433 120.48 47.3582 120.726 64.9879C120.726 64.9879 113.281 73.0192 108.369 71.5754C103.457 70.1341 108.255 55.9678 108.255 55.9678C120.353 43.4537 128.099 29.4543 131.231 22.7044C136.358 11.8088 137.583 2.11382 127.098 1.88191C126.672 1.85745 126.248 1.85252 125.836 1.86505L125.833 1.85889ZM128.749 10.8828C130.01 11.0857 130.315 13.2674 128.814 17.0609C123.941 29.3548 117.563 35.8338 113.063 42.3745C113.141 41.8838 117.115 26.3762 124.477 14.1774C126.209 11.762 127.768 10.7239 128.749 10.8818V10.8828ZM145.211 45.7141C147.679 45.8054 148.916 49.0419 148.021 52.9881C147.733 54.2599 142.474 66.8376 142.474 66.8376C140.229 70.938 137.931 71.9529 135.774 71.5262C132.64 70.5653 133.158 66.0677 134.125 61.6588C136.272 51.6546 141.364 47.3065 142.364 46.762C143.428 46.0041 144.388 45.6838 145.211 45.7141Z" fill="#191919" stroke="#191919" stroke-opacity="0.35" stroke-width="3.0306"/>
</g>
</g>
<defs>
<clipPath id="clip0_579_44">
<rect width="173" height="84" fill="white"/>
</clipPath>
<clipPath id="clip1_579_44">
<rect width="173" height="84" fill="white"/>
</clipPath>
</defs>
</svg>
