<svg width="195" height="84" viewBox="0 0 195 84" fill="none" xmlns="http://www.w3.org/2000/svg">
<g clip-path="url(#clip0_655_75)">
<path d="M64.2138 18.8006L44.5571 50.5717V71.9438C46.8199 77.0863 52.5388 77.7713 58.0197 78.0006V80.9717H19.5382V78.0006C25.0186 77.7713 31.6902 76.9723 33.477 73.5442V51.486L13.4621 19.0287C10.0078 13.5429 6.67201 11.7152 0 11.2575V8.28632H33.4774V11.2575C27.1628 11.6 25.1379 12.7438 23.3511 14.1157L41.9362 44.9715L60.1639 14.229C58.2578 12.8579 55.7562 11.6 49.442 11.2579V8.28669H78.0341V11.2579C71.6007 11.4867 67.55 13.5429 64.2138 18.8006ZM103.29 82.0004C96.8574 82.0004 93.7594 77.7714 93.5212 74.8009C89.4702 78.9148 84.2291 82.0004 79.2253 82.0004C72.7919 82.0004 67.3111 78.2287 67.3111 71.7157C67.3111 68.5146 68.1452 65.2002 69.8135 62.5723L93.5212 54.3434V45.8861C93.5212 40.7436 91.0192 35.8292 85.658 35.8292C82.4415 35.8292 79.3438 39.5998 79.1061 45.4292L68.383 47.1425V46.0009C71.957 35.7141 83.752 31.715 89.4698 31.715C100.311 31.715 104.243 37.2 104.124 45.6573L103.767 69.6569C103.648 74.3429 106.268 75.4856 108.651 75.4856C110.557 75.4856 112.463 74.3429 114.727 72.1719V75.4856C112.107 78.4579 107.461 82.0004 103.29 82.0004ZM79.4635 63.3721C78.9868 65.2002 78.6297 66.8002 78.6297 69.3148C78.6297 72.7429 80.6551 76.171 84.5861 76.171C88.1601 76.171 90.1854 75.0294 93.4024 72.6288L93.5212 57.1994C90.424 58.571 82.7997 61.7721 79.4635 63.3721ZM115.8 80.9717V78.3427C121.161 78.0002 122.709 76.8575 123.663 74.9135V15.7139C123.663 11.8281 123.067 10.2288 114.847 9.5427V7.2573L136.649 2L137.363 3.94399L133.909 8.05786V74.9139C135.1 77.2004 137.363 78.0006 142.248 78.3431V80.9721H115.8V80.9717ZM170.84 81.886C158.331 81.886 148.681 72.4004 148.681 59.1431C148.681 42.9142 159.046 31.8283 173.7 31.8283C185.494 31.8283 192.047 38.2298 192.047 48.4004V50.4573L159.88 50.2292C159.642 51.486 159.522 53.544 159.522 56.0575C159.522 67.7144 167.147 75.3715 177.274 75.3715C183.349 75.3715 186.448 73.3142 191.212 69.4288L192.999 72.0568C186.209 78.0006 180.609 81.886 170.84 81.886ZM171.913 35.3723C165.955 35.3723 161.787 39.9431 160.357 47.1425L181.326 46.9144C181.325 40.8573 177.393 35.3723 171.913 35.3723Z" fill="#191919"/>
</g>
<defs>
<clipPath id="clip0_655_75">
<rect width="193" height="80" fill="white" transform="translate(0 2)"/>
</clipPath>
</defs>
</svg>
