<svg width="213" height="88" viewBox="0 0 213 88" fill="none" xmlns="http://www.w3.org/2000/svg">
<g clip-path="url(#clip0_579_2)">
<g clip-path="url(#clip1_579_2)">
<path d="M70.8681 18.4806L49.1745 53.4289V76.9382C51.6717 82.595 57.9833 83.3485 64.0321 83.6006V86.8689H21.5628V83.6006C27.6112 83.3485 34.9742 82.4695 36.9461 78.6986V54.4345L14.8572 18.7315C11.0449 12.6972 7.36341 10.6867 0 10.1832V6.91495H36.9465V10.1832C29.9776 10.56 27.7428 11.8182 25.7709 13.3273L46.2819 47.2687L66.3985 13.4519C64.2949 11.9436 61.534 10.56 54.5655 10.1836V6.91536H86.1206V10.1836C79.0204 10.4354 74.55 12.6972 70.8681 18.4806ZM113.994 88.0004C106.894 88.0004 103.475 83.3485 103.213 80.081C98.7417 84.6063 92.9575 88.0004 87.4352 88.0004C80.3351 88.0004 74.2863 83.8515 74.2863 76.6873C74.2863 73.1661 75.2069 69.5202 77.0481 66.6295L103.213 57.5778V48.2747C103.213 42.618 100.451 37.2121 94.5345 37.2121C90.9846 37.2121 87.566 41.3598 87.3036 47.7721L75.4693 49.6568V48.401C79.4136 37.0855 92.4309 32.6865 98.7413 32.6865C110.706 32.6865 115.045 38.72 114.914 48.023L114.52 74.4226C114.388 79.5772 117.28 80.8341 119.91 80.8341C122.014 80.8341 124.117 79.5772 126.616 77.1891V80.8341C123.724 84.1036 118.597 88.0004 113.994 88.0004ZM87.6981 67.5093C87.1719 69.5202 86.7779 71.2802 86.7779 74.0463C86.7779 77.8172 89.0131 81.5881 93.3515 81.5881C97.2958 81.5881 99.5311 80.3323 103.081 77.6917L103.213 60.7194C99.7943 62.2281 91.38 65.7493 87.6981 67.5093ZM127.8 86.8689V83.977C133.716 83.6002 135.425 82.3432 136.478 80.2048V15.0852C136.478 10.8109 135.82 9.05172 126.748 8.29697V5.78303L150.81 0L151.598 2.13839L147.785 6.66364V80.2052C149.1 82.7204 151.598 83.6006 156.989 83.9774V86.8693H127.8V86.8689ZM188.543 87.8745C174.738 87.8745 164.088 77.4404 164.088 62.8574C164.088 45.0057 175.528 32.8111 191.7 32.8111C204.716 32.8111 211.948 39.8527 211.948 51.0404V53.303L176.448 53.0521C176.185 54.4345 176.053 56.6984 176.053 59.4632C176.053 72.2859 184.468 80.7087 195.645 80.7087C202.349 80.7087 205.769 78.4457 211.027 74.1717L212.999 77.0624C205.505 83.6006 199.325 87.8745 188.543 87.8745ZM189.728 36.7095C183.153 36.7095 178.552 41.7374 176.974 49.6568L200.116 49.4059C200.116 42.743 195.776 36.7095 189.728 36.7095Z" fill="#191919"/>
</g>
</g>
<defs>
<clipPath id="clip0_579_2">
<rect width="213" height="88" fill="white"/>
</clipPath>
<clipPath id="clip1_579_2">
<rect width="213" height="88" fill="white"/>
</clipPath>
</defs>
</svg>
